# xmcd CD database file
#
# Track frame offsets:
#	187
#	36687
#	84687
#	116662
#	164975
#	188862
#
# Disc length: 3020 seconds
#
# Revision: 0
# Processed by: cddbd v1.5PL3 Copyright (c) Steve Scherf et al.
# Submitted via: CDex 1.51
#
DISCID=590bca06
DTITLE=Benny Golson - Time Speaks
DYEAR=1900
DGENRE=Jazz
TTITLE0=I'll remember april
TTITLE1=time speaks
TTITLE2=no dancin'
TTITLE3=jordu
TTITLE4=blues for duane
TTITLE5=theme for maxine
EXTD=
EXTT0=
EXTT1=
EXTT2=
EXTT3=
EXTT4=
EXTT5=
PLAYORDER=
